<svg width="270" height="310" viewBox="0 0 270 310" fill="none" xmlns="http://www.w3.org/2000/svg">
<path d="M52 155L112 120.359L112 189.641L52 155Z" fill="white" fill-opacity="0.6"/>
<path d="M52.0551 83.4449L112.055 118.086L52.0551 152.727L52.0551 83.4449Z" fill="white" fill-opacity="0.8"/>
<path d="M110.945 49.4449L170.945 84.0859L110.945 118.727L110.945 49.4449Z" fill="white" fill-opacity="0.8"/>
<path d="M111.193 49.542L111.193 117.958L51.9426 83.75L111.193 49.542Z" fill="white" fill-opacity="0.8"/>
<path d="M236 121L176 155.641L176 86.359L236 121Z" fill="white" fill-opacity="0.9"/>
<path d="M236 189L176 223.641L176 154.359L236 189Z" fill="white" fill-opacity="0.9"/>
<path d="M235.792 189.166L176.542 154.958L235.792 120.75L235.792 189.166Z" fill="white" fill-opacity="0.9"/>
<path d="M114 189.919L174 154.342L174 225.496L114 189.919Z" fill="white"/>
<path d="M114 120.081L174 84.5038L174 155.658L114 120.081Z" fill="white"/>
<path d="M114.208 119.911L173.458 155.043L114.208 190.176L114.208 119.911Z" fill="white"/>
<path d="M110.902 260.497L110.931 191.231L170.873 225.839L110.902 260.497Z" fill="white" fill-opacity="0.7"/>
<path d="M52.0692 226.529L52.0981 157.264L112.04 191.872L52.0692 226.529Z" fill="white" fill-opacity="0.7"/>
<path d="M52.0296 226.266L111.251 192.042L111.223 260.441L52.0296 226.266Z" fill="white" fill-opacity="0.7"/>
</svg>
