<svg width="3285" height="2213" viewBox="0 0 3285 2213" fill="none" xmlns="http://www.w3.org/2000/svg">
<path d="M893.5 623.234L1161.97 623.234L1027.73 855.734L893.5 623.234Z" fill="#3EA5FF" fill-opacity="0.9"/>
<path d="M1186.5 623.234L1454.97 623.234L1320.73 855.734L1186.5 623.234Z" fill="#3EA5FF" fill-opacity="0.9"/>
<path d="M1478.5 623.234L1746.97 623.234L1612.73 855.734L1478.5 623.234Z" fill="#26A270" fill-opacity="0.2"/>
<path d="M1626.5 869.234L1894.97 869.234L1760.73 1101.73L1626.5 869.234Z" fill="#26A270" fill-opacity="0.8"/>
<path d="M1478.5 1113.23L1746.97 1113.23L1612.73 1345.73L1478.5 1113.23Z" fill="#26A270" fill-opacity="0.2"/>
<path d="M1333.5 1356.23L1601.97 1356.23L1467.73 1588.73L1333.5 1356.23Z" fill="#26A270" fill-opacity="0.8"/>
<path d="M1187.5 1113.23L1455.97 1113.23L1321.73 1345.73L1187.5 1113.23Z" fill="#26A270" fill-opacity="0.8"/>
<path d="M1040.5 857.234L1174.73 624.734L1308.97 857.234L1040.5 857.234Z" fill="#3EA5FF" fill-opacity="0.5"/>
<path d="M891.5 612.234L1025.73 379.734L1159.97 612.234L891.5 612.234Z" fill="#26A270" fill-opacity="0.5"/>
<path d="M746.5 355.234L880.734 122.734L1014.97 355.234L746.5 355.234Z" fill="#26A270" fill-opacity="0.5"/>
<path d="M1332.5 857.234L1466.73 624.734L1600.97 857.234L1332.5 857.234Z" fill="#26A270" fill-opacity="0.5"/>
<path d="M1625.5 857.234L1759.73 624.734L1893.97 857.234L1625.5 857.234Z" fill="#3EA5FF" fill-opacity="0.5"/>
<path d="M1478.5 1101.23L1612.73 868.734L1746.97 1101.23L1478.5 1101.23Z" fill="#26A270" fill-opacity="0.5"/>
<path d="M1333.5 1346.23L1467.73 1113.73L1601.97 1346.23L1333.5 1346.23Z" fill="#3EA5FF" fill-opacity="0.5"/>
<path d="M2066.5 134.234L2334.97 134.234L2200.73 366.734L2066.5 134.234Z" fill="#3EA5FF" fill-opacity="0.5"/>
<path d="M2214.5 380.234L2482.97 380.234L2348.73 612.734L2214.5 380.234Z" fill="#26A270" fill-opacity="0.5"/>
<path d="M2066.5 624.234L2334.97 624.234L2200.73 856.734L2066.5 624.234Z" fill="#26A270" fill-opacity="0.8"/>
<path d="M1775.5 624.234L2043.97 624.234L1909.73 856.734L1775.5 624.234Z" fill="#26A270" fill-opacity="0.8"/>
<path d="M2499.5 1358.23L2767.97 1358.23L2633.73 1590.73L2499.5 1358.23Z" fill="#26A270" fill-opacity="0.8"/>
<path d="M2791.5 1358.23L3059.97 1358.23L2925.73 1590.73L2791.5 1358.23Z" fill="#26A270" fill-opacity="0.2"/>
<path d="M2353.5 1592.23L2487.73 1359.73L2621.97 1592.23L2353.5 1592.23Z" fill="#26A270" fill-opacity="0.5"/>
<path d="M2645.5 1592.23L2779.73 1359.73L2913.97 1592.23L2645.5 1592.23Z" fill="#26A270" fill-opacity="0.5"/>
<path d="M2938.5 1592.23L3072.73 1359.73L3206.97 1592.23L2938.5 1592.23Z" fill="#26A270" fill-opacity="0.5"/>
<path d="M748.5 369.234L1016.97 369.234L882.734 601.734L748.5 369.234Z" fill="#3EA5FF" fill-opacity="0.9"/>
<path d="M1920.5 368.234L2054.73 135.734L2188.97 368.234L1920.5 368.234Z" fill="#3EA5FF" fill-opacity="0.9"/>
<path d="M2213.5 368.234L2347.73 135.734L2481.97 368.234L2213.5 368.234Z" fill="#3EA5FF" fill-opacity="0.9"/>
<path d="M2066.5 612.234L2200.73 379.734L2334.97 612.234L2066.5 612.234Z" fill="#26A270" fill-opacity="0.5"/>
<path d="M2029.01 1599.44L1894.78 1831.94L1760.54 1599.44L2029.01 1599.44Z" fill="#26A270" fill-opacity="0.2"/>
<path d="M1741.97 1604.61L1607.73 1837.11L1473.5 1604.61L1741.97 1604.61Z" fill="#26A270" fill-opacity="0.8"/>
<path d="M1899.36 1356L2033.59 1588.5L1765.13 1588.5L1899.36 1356Z" fill="#26A270" fill-opacity="0.5"/>
<path d="M1752.86 1609.75L1887.09 1842.25L1618.63 1842.25L1752.86 1609.75Z" fill="#3EA5FF" fill-opacity="0.5"/>
<path d="M1615.05 1360.44L1749.28 1592.94L1480.82 1592.94L1615.05 1360.44Z" fill="#26A270" fill-opacity="0.5"/>
<path d="M1921.5 857.234L2055.73 624.734L2189.97 857.234L1921.5 857.234Z" fill="#26A270" fill-opacity="0.5"/>
<path d="M155 872L289.234 1104.5H20.7661L155 872Z" fill="#3EA5FF" fill-opacity="0.5"/>
<path d="M162.5 866.234L430.968 866.234L296.734 1098.73L162.5 866.234Z" fill="#3EA5FF" fill-opacity="0.9"/>
<path d="M307.5 1114.23L575.968 1114.23L441.734 1346.73L307.5 1114.23Z" fill="#26A270" fill-opacity="0.8"/>
<path d="M600.5 1114.23L868.968 1114.23L734.734 1346.73L600.5 1114.23Z" fill="#3EA5FF" fill-opacity="0.9"/>
<path d="M892.5 1114.23L1160.97 1114.23L1026.73 1346.73L892.5 1114.23Z" fill="#26A270" fill-opacity="0.8"/>
<path d="M1040.5 1360.23L1308.97 1360.23L1174.73 1592.73L1040.5 1360.23Z" fill="#26A270" fill-opacity="0.2"/>
<path d="M892.5 1604.23L1160.97 1604.23L1026.73 1836.73L892.5 1604.23Z" fill="#3EA5FF" fill-opacity="0.9"/>
<path d="M747.5 1847.23L1015.97 1847.23L881.734 2079.73L747.5 1847.23Z" fill="#26A270" fill-opacity="0.8"/>
<path d="M601.5 1604.23L869.968 1604.23L735.734 1836.73L601.5 1604.23Z" fill="#26A270" fill-opacity="0.5"/>
<path d="M307.5 1104.23L441.734 871.734L575.968 1104.23L307.5 1104.23Z" fill="#26A270" fill-opacity="0.5"/>
<path d="M454.5 1348.23L588.734 1115.73L722.968 1348.23L454.5 1348.23Z" fill="#26A270" fill-opacity="0.5"/>
<path d="M746.5 1348.23L880.734 1115.73L1014.97 1348.23L746.5 1348.23Z" fill="#3EA5FF" fill-opacity="0.5"/>
<path d="M1039.5 1348.23L1173.73 1115.73L1307.97 1348.23L1039.5 1348.23Z" fill="#26A270" fill-opacity="0.5"/>
<path d="M892.5 1592.23L1026.73 1359.73L1160.97 1592.23L892.5 1592.23Z" fill="#3EA5FF" fill-opacity="0.5"/>
<path d="M747.5 1837.23L881.734 1604.73L1015.97 1837.23L747.5 1837.23Z" fill="#3EA5FF" fill-opacity="0.5"/>
<path d="M2352.5 1113.23L2620.97 1113.23L2486.73 1345.73L2352.5 1113.23Z" fill="#3EA5FF" fill-opacity="0.9"/>
<path d="M2204.5 1357.23L2472.97 1357.23L2338.73 1589.73L2204.5 1357.23Z" fill="#26A270" fill-opacity="0.8"/>
<path d="M2059.5 1600.23L2327.97 1600.23L2193.73 1832.73L2059.5 1600.23Z" fill="#26A270" fill-opacity="0.2"/>
<path d="M1913.5 1357.23L2181.97 1357.23L2047.73 1589.73L1913.5 1357.23Z" fill="#26A270" fill-opacity="0.8"/>
<path d="M2204.5 1345.23L2338.73 1112.73L2472.97 1345.23L2204.5 1345.23Z" fill="#3EA5FF" fill-opacity="0.9"/>
<path d="M2059.5 1590.23L2193.73 1357.73L2327.97 1590.23L2059.5 1590.23Z" fill="#26A270" fill-opacity="0.5"/>
<path d="M2059.5 2078.23L2193.73 1845.73L2327.97 2078.23L2059.5 2078.23Z" fill="#3EA5FF" fill-opacity="0.9"/>
</svg>
